<?xml version="1.0" encoding="UTF-8"?>
<!DOCTYPE svg PUBLIC "-//W3C//DTD SVG 1.1//EN" "http://www.w3.org/Graphics/SVG/1.1/DTD/svg11.dtd">
<!-- Creator: CorelDRAW 2018 (64-Bit) -->
<svg xmlns="http://www.w3.org/2000/svg" xml:space="preserve" width="122.628mm" height="122.628mm" version="1.1"
     style="shape-rendering:geometricPrecision; text-rendering:geometricPrecision; image-rendering:optimizeQuality; fill-rule:evenodd; clip-rule:evenodd"
     viewBox="0 0 17685259 17685259"
>
 <defs>
  <style type="text/css">
   <![CDATA[
    .fil0 {fill:#A9ABAE;fill-opacity:0.501961}
   ]]>
  </style>
 </defs>
 <g id="Слой_x0020_1">
  <metadata id="CorelCorpID_0Corel-Layer"/>
  <path class="fil0" d="M8842630 0c4883869,0 8842630,3958775 8842630,8842630 0,4883869 -3958760,8842630 -8842630,8842630 -4883855,0 -8842630,-3958760 -8842630,-8842630 0,-4883855 3958775,-8842630 8842630,-8842630zm581045 6550409l3419828 3425265c319734,319748 319734,840539 0,1160273 -319734,314658 -840899,314658 -1160633,0l-2842056 -2842056 -2842417 2842056c-319734,314658 -840524,314658 -1160619,0 -314658,-319734 -314658,-840524 0,-1160273l3425265 -3425265c159680,-154603 366187,-237356 577771,-237356l61697 0 20695 5451 15605 0 20681 5077 20320 0 20695 5077 15605 5091 20681 0 0 5077 20695 0 20320 5437 0 5091 15605 5077 41376 10167 15244 10514 20681 5091 15605 10153 20681 5451 15244 10153 20695 10528 30848 20320 20681 10528 15605 10167 15605 15605 15244 10153 5091 0 15605 10528 30848 30848 15605 10167 15605 15605 0 0z"/>
 </g>
</svg>
